<svg width="400" height="400" xmlns="http://www.w3.org/2000/svg">
 <style type="text/css">.st0{opacity:0.15;fill:#292F33;}
	.st1{fill:#FFFFFF;}</style>

 <g>
  <title>background</title>
  <rect fill="none" id="canvas_background" height="602" width="802" y="-1" x="-1"/>
 </g>
 <g>
  <title>Layer 1</title>
  <g id="Logo__x2014__FIXED">
   <g id="svg_1">
    <path id="svg_2" d="m125.40472,357.95509c150.5253,0 232.89121,-124.82586 232.89121,-232.89121c0,-3.51172 0,-7.02345 -0.15962,-10.53517c15.96239,-11.49292 29.84966,-26.01869 40.86371,-42.45995c-14.68539,6.54458 -30.48816,10.85442 -47.08904,12.92953c16.92013,-10.0563 29.84966,-26.17831 36.07499,-45.33318c-15.80276,9.41781 -33.36139,16.12201 -52.03738,19.79336c-15.00464,-15.96239 -36.23462,-25.85906 -59.69932,-25.85906c-45.17355,0 -81.88704,36.71349 -81.88704,81.88704c0,6.38495 0.79812,12.61028 2.07511,18.67599c-67.99976,-3.3521 -128.33758,-36.07499 -168.72242,-85.55839c-7.02345,12.13141 -11.01405,26.17831 -11.01405,41.18296c0,28.41305 14.52577,53.47399 36.39424,68.15939c-13.4084,-0.47887 -26.01869,-4.15022 -37.03273,-10.21593c0,0.31925 0,0.6385 0,1.11737c0,39.58672 28.25342,72.78848 65.60541,80.2908c-6.86383,1.91549 -14.0469,2.87323 -21.54922,2.87323c-5.26759,0 -10.37555,-0.47887 -15.32389,-1.43661c10.37555,32.56327 40.70408,56.1876 76.45983,56.82609c-28.0938,22.02809 -63.37067,35.11725 -101.6804,35.11725c-6.54458,0 -13.08916,-0.31925 -19.47411,-1.11737c36.07499,22.98584 79.17343,36.55386 125.30473,36.55386" class="st1"/>
   </g>
  </g>
 </g>
</svg>